<?xml version="1.0" encoding="UTF-8"?>
<!DOCTYPE svg PUBLIC "-//W3C//DTD SVG 1.1//EN" "http://www.w3.org/Graphics/SVG/1.1/DTD/svg11.dtd">
<svg xmlns="http://www.w3.org/2000/svg" version="1.1" width="474px" height="474px" style="shape-rendering:geometricPrecision; text-rendering:geometricPrecision; image-rendering:optimizeQuality; fill-rule:evenodd; clip-rule:evenodd" xmlns:xlink="http://www.w3.org/1999/xlink">
<g><path fill="#f7f7f7" fill-opacity="0.969" d="M 335.95,192.44 c 8.39,0.8 9.81,10.31 6.58,16.63 c -2.53,-5.89 -0.88,-11.78 -6.58,-15.4 c -0.34,-0.39 -0.34,-0.8 0,-1.23 Z"/></g>
<g><path fill="#f0f0f0" fill-opacity="0.914" d="M 282.92,162.85 c 2.27,1.97 4.03,4.32 5.3,7.05 c -2.12,-1.74 -4.41,-3.23 -6.87,-4.48 c 0.24,-1.02 0.76,-1.88 1.57,-2.57 Z"/></g>
<g><path fill="#fdfdfd" fill-opacity="0.996" stroke="#fdfdfd" stroke-width="0.5" stroke-opacity="0.996" d="M 189.27,164.97 c -0.19,-6.37 3.35,-8.94 9.21,-9.68 c 27.99,0.98 33.93,-0.22 46.69,-25.65 c 5.28,-7.17 7.51,-9.03 15.75,-4.03 c 7.96,6.23 0.56,15.13 -3.31,21.43 c -12.33,20.22 -4,28.17 5.83,46.05 c 3.66,7.69 -1.57,12.73 -8.94,13.89 c -8.15,0.09 -13.06,-17.86 -18.06,-23.01 c -8.94,-11.43 -28.2,-6.76 -40.81,-8.38 c -5.23,-1.66 -6.43,-5.55 -6.36,-10.62 Z M 149.23,167.78 c 4.37,-8.57 12.53,-10.4 18.16,-1.61 c 12.82,27.22 19.35,25.39 48.02,25.24 c 9.77,1.17 10.84,8.3 8.08,16.67 c -6.01,8.19 -27.36,0.38 -37.76,7.14 c -10.46,6.8 -12.04,15.72 -18.78,25.32 c -5.67,8.19 -19.06,1.5 -17.59,-6.95 c 5.91,-16.71 18.94,-22.55 10.13,-43.52 c -2.92,-6.45 -10.65,-15.19 -10.26,-22.29 Z M 282.92,162.85 c -0.81,0.69 -1.33,1.55 -1.57,2.57 c 2.46,1.25 4.75,2.74 6.87,4.48 c 12.22,25.91 21.63,22.16 47.73,22.54 c -0.34,0.43 -0.34,0.84 0,1.23 c 5.7,3.62 4.05,9.51 6.58,15.4 c -8.72,11.06 -34.39,-6.18 -47.94,18.02 c -3.62,6.76 -9.5,22.06 -19.48,17.28 c -15.01,-5.7 0.97,-22.01 4.3,-30.58 c 6.8,-15.87 -2.06,-24.28 -9.14,-37.51 c -5.26,-9.43 4.68,-18.78 12.65,-13.43 Z M 131.26,271.08 c -0.15,-13.4 12.78,-10.78 22.05,-10.41 c 11.66,-0.58 17.3,-1.25 25.12,-10.78 c 5.33,-6.14 10.66,-26.58 21.85,-20.61 c 8.98,5.22 7.47,8.45 3.33,16.83 c -9.99,15.75 -14.19,24.43 -4.03,41.91 c 3.66,6.48 11.31,14.51 4.2,21.29 c -11.84,10.27 -18.38,-9.06 -22.93,-16.72 c -5.78,-8.64 -9,-9.5 -19.31,-11.29 c -7.25,-1.85 -24.78,3.08 -28.98,-4.34 c -0.87,-1.86 -1.31,-3.82 -1.3,-5.88 Z M 250.67,272.07 c -0.12,-7.72 2.65,-9.71 9.75,-10.71 c 30.68,1.07 32.97,-1.58 47.23,-27.28 c 5.27,-8.01 13.25,-5.7 17.78,1.49 c 2.93,6.88 -7.69,17.82 -9.92,24.4 c -8.35,18.39 4.83,26.85 10.33,42.46 c 1.52,7.77 -9.47,14.08 -15.25,8.4 c -12.08,-15 -7.76,-26.05 -32.07,-28.81 c -9.33,-1.42 -28.35,5.03 -27.85,-9.95 Z M 209.99,341 c 0.84,-9.22 12.11,-18.99 13.04,-30.48 c 1.8,-15.06 -15.21,-26.53 -12.78,-37.82 c 5.72,-8.12 13.24,-8.91 18.13,0.45 c 10.04,19.52 13.15,24.39 36.13,24.58 c 12.24,0.34 21.96,-3.53 20.36,13.82 c -1.62,10.63 -20.02,4.94 -27.39,6.65 c -19.23,2.56 -20.47,13.76 -29.68,28.06 c -5.7,8.4 -18.18,2.86 -17.81,-5.26 Z"/></g>
</svg>
